<svg width="959" height="900" viewBox="0 0 959 900" fill="none" xmlns="http://www.w3.org/2000/svg">
<path fill-rule="evenodd" id="test" clip-rule="evenodd" d="M0 0H959V900H0V268.49H18.3185C31.8682 268.492 45.0175 273.085 55.621 281.521C66.2246 289.957 73.6565 301.737 76.7045 314.94L166.171 703.544C173.951 736.398 198.015 765 234.244 765C270.473 765 298.732 742.424 305.653 708.635L385.09 339.976L388.179 313.776L391.078 340.052L470.496 708.635C477.417 742.424 505.523 765 541.905 765C578.287 765 602.274 736.398 610.054 703.506L728.961 186.765H642.927L543.545 617.986L539.331 653.7L535.269 616.918L455.432 246.924C448.51 210.562 429.061 184 388.351 184H388.065C347.355 184 327.905 210.466 320.984 246.924L240.937 617.3L236.646 653.7L232.661 617.605L158.296 295.357C143.042 223.166 94.2279 186.841 20.6448 186.841L0 186.612V0ZM847.418 604.359C839.848 599.501 831.002 597.008 822.008 597.198C810.127 597.354 798.791 602.21 790.482 610.705C782.173 619.2 777.568 630.64 777.675 642.522C777.685 651.517 780.373 660.306 785.397 667.768C790.421 675.229 797.554 681.025 805.885 684.417C814.217 687.809 823.369 688.643 832.176 686.813C840.984 684.982 849.046 680.571 855.336 674.14C861.626 667.71 865.858 659.551 867.493 650.706C869.129 641.86 868.092 632.728 864.517 624.474C860.942 616.22 854.989 609.217 847.418 604.359ZM700.374 642.503C700.374 574.831 754.851 519.972 822.008 519.972L821.932 519.992C889.108 519.992 943.566 574.888 943.566 642.522C943.566 710.156 889.223 764.995 822.008 764.995C754.794 764.995 700.374 710.175 700.374 642.503Z" fill="url(#paint0_linear_1105_3272)"/>
<defs>
<linearGradient id="paint0_linear_1105_3272" x1="479.5" y1="0" x2="479.5" y2="1189.09" gradientUnits="userSpaceOnUse">
<stop stop-color="#E95050"/>
<stop offset="1" stop-color="#C63434"/>
</linearGradient>
</defs>
</svg>
