<svg width="48" height="41" viewBox="0 0 48 41" fill="none" xmlns="http://www.w3.org/2000/svg">
    <rect x="8.33279" y="7.85938" width="2.08314" height="2.08314" fill="white" />
    <rect x="22.9144" width="2.08314" height="36.6444" fill="white" />
    <rect x="20.8317" y="27.7441" width="2.08314" height="8.9007" fill="white" />
    <rect x="24.9977" y="27.7441" width="2.08314" height="8.9007" fill="white" />
    <rect x="37.4966" y="7.85938" width="2.08314" height="2.08314" fill="white" />
    <rect x="37.4966" y="3.50391" width="2.08314" height="2.08314" fill="white" />
    <rect x="8.33279" y="3.50391" width="2.08314" height="2.08314" fill="white" />
    <rect x="10.5103" y="9.94238" width="2.08314" height="2.08314" fill="white" />
    <rect x="39.6747" y="9.94238" width="2.08314" height="2.08314" fill="white" />
    <rect x="12.5936" y="12.0254" width="2.08314" height="2.08314" fill="white" />
    <rect x="41.7574" y="12.0254" width="2.08314" height="2.08314" fill="white" />
    <rect x="12.5936" y="14.1084" width="2.08314" height="2.08314" fill="white" />
    <rect x="41.7574" y="14.1084" width="2.08314" height="2.08314" fill="white" />
    <rect x="14.6763" y="16.1914" width="2.08314" height="2.08314" fill="white" />
    <rect x="14.6763" y="38.917" width="18.6536" height="2.08314" fill="white" />
    <rect x="43.8408" y="16.1914" width="2.08314" height="2.08314" fill="white" />
    <rect x="14.6763" y="18.2754" width="2.08314" height="2.08314" fill="white" />
    <rect x="43.8408" y="18.2754" width="2.08314" height="2.08314" fill="white" />
    <rect x="14.6763" y="22.4414" width="2.08314" height="2.08314" fill="white" />
    <rect x="43.8408" y="22.4414" width="2.08314" height="2.08314" fill="white" />
    <rect x="4.16608" y="24.5244" width="10.5104" height="2.08314" fill="white" />
    <rect x="4.16608" y="22.4414" width="10.5104" height="2.08314" fill="white" />
    <rect x="33.3305" y="24.5244" width="10.5104" height="2.08314" fill="white" />
    <rect x="33.3305" y="22.4414" width="10.5104" height="2.08314" fill="white" />
    <rect x="6.24942" y="9.94238" width="2.08314" height="2.08314" fill="white" />
    <rect x="35.4132" y="9.94238" width="2.08314" height="2.08314" fill="white" />
    <rect x="4.16608" y="12.0254" width="2.08314" height="2.08314" fill="white" />
    <rect x="33.3305" y="12.0254" width="2.08314" height="2.08314" fill="white" />
    <rect x="4.16608" y="14.1084" width="2.08314" height="2.08314" fill="white" />
    <rect x="33.3305" y="14.1084" width="2.08314" height="2.08314" fill="white" />
    <rect x="2.08337" y="16.1914" width="2.08314" height="2.08314" fill="white" />
    <rect x="31.2472" y="16.1914" width="2.08314" height="2.08314" fill="white" />
    <rect x="2.08337" y="18.2754" width="2.08314" height="2.08314" fill="white" />
    <rect x="31.2472" y="18.2754" width="2.08314" height="2.08314" fill="white" />
    <rect x="2.08337" y="20.3574" width="2.08314" height="2.08314" fill="white" />
    <rect x="31.2472" y="20.3574" width="2.08314" height="2.08314" fill="white" />
    <rect x="2.08337" y="22.4414" width="2.08314" height="2.08314" fill="white" />
    <rect x="31.2472" y="22.4414" width="2.08314" height="2.08314" fill="white" />
    <rect y="20.3574" width="18.6536" height="2.08314" fill="white" />
    <rect x="29.1638" y="20.3574" width="18.6536" height="2.08314" fill="white" />
    <rect x="8.33279" y="5.58691" width="31.2471" height="2.27252" fill="white" />
    <rect x="16.7597" y="36.6445" width="14.4873" height="2.27252" fill="white" />
</svg>