<svg width="51" height="30" viewBox="0 0 51 30" fill="none" xmlns="http://www.w3.org/2000/svg">
<path d="M35.9469 0.138437L30.9708 21.7299L30.7598 23.5181L30.5564 21.6764L26.5589 3.15064C26.2124 1.32995 25.2385 0 23.2002 0L23.1858 0C21.1475 0 20.1736 1.32518 19.8271 3.15064L15.8191 21.6955L15.6043 23.5181L15.4047 21.7108L11.6812 5.57567C10.9174 1.96103 8.47331 0.142255 4.78897 0.142255L0 0.130799L0 4.23045L4.67249 4.23045C5.35093 4.23054 6.00932 4.46054 6.54025 4.88292C7.07117 5.3053 7.44329 5.89513 7.5959 6.55619L12.0755 26.0138C12.4651 27.6588 13.67 29.0909 15.484 29.0909C17.298 29.0909 18.7129 27.9605 19.0595 26.2687L23.0369 7.80976L23.1916 6.49795L23.3367 7.81358L27.3132 26.2687C27.6597 27.9605 29.067 29.0909 30.8887 29.0909C32.7103 29.0909 33.9114 27.6588 34.3009 26.0119L40.2547 0.138437L35.9469 0.138437Z" fill="white"/>
<path d="M44.9136 20.689C45.3639 20.6795 45.8068 20.8043 46.1859 21.0475C46.5649 21.2908 46.863 21.6414 47.042 22.0547C47.221 22.468 47.2729 22.9252 47.191 23.3681C47.1092 23.811 46.8972 24.2195 46.5823 24.5415C46.2674 24.8635 45.8637 25.0844 45.4227 25.176C44.9817 25.2677 44.5234 25.2259 44.1063 25.0561C43.6891 24.8862 43.332 24.596 43.0804 24.2224C42.8289 23.8488 42.6943 23.4088 42.6938 22.9584C42.6884 22.3634 42.919 21.7906 43.335 21.3653C43.7511 20.9399 44.3187 20.6968 44.9136 20.689ZM44.9136 16.8223C41.551 16.8223 38.8233 19.569 38.8233 22.9574C38.8233 26.3458 41.5481 29.0907 44.9136 29.0907C48.279 29.0907 51 26.3448 51 22.9584C51 19.5719 48.2733 16.8232 44.9097 16.8232L44.9136 16.8223Z" fill="white"/>
</svg>
