<svg width="70" height="178" viewBox="0 0 70 178" fill="none" xmlns="http://www.w3.org/2000/svg">
<rect x="20" width="10" height="10" fill="white"/>
<rect x="30" width="10" height="10" fill="white"/>
<rect x="40" width="10" height="10" fill="white"/>
<rect x="50" y="10" width="10" height="10" fill="white"/>
<rect x="50" y="20" width="10" height="10" fill="white"/>
<rect x="50" y="30" width="10" height="10" fill="white"/>
<rect x="40" y="40" width="10" height="10" fill="white"/>
<rect x="30" y="40" width="10" height="78" fill="white"/>
<rect x="20" y="40" width="10" height="10" fill="white"/>
<rect x="20" y="60" width="10" height="10" fill="white"/>
<rect x="10" y="60" width="10" height="10" fill="white"/>
<rect x="10" y="70" width="10" height="10" fill="white"/>
<rect y="70" width="10" height="10" fill="white"/>
<rect y="80" width="10" height="30" fill="white"/>
<rect x="60" y="80" width="10" height="30" fill="white"/>
<rect x="40" y="60" width="10" height="10" fill="white"/>
<rect x="50" y="60" width="10" height="10" fill="white"/>
<rect x="50" y="70" width="10" height="10" fill="white"/>
<rect x="60" y="70" width="10" height="10" fill="white"/>
<rect x="20" y="118" width="10" height="10" fill="white"/>
<rect x="20" y="128" width="10" height="10" fill="white"/>
<rect x="10" y="128" width="10" height="50" fill="white"/>
<rect x="50" y="128" width="10" height="50" fill="white"/>
<rect x="40" y="118" width="10" height="10" fill="white"/>
<rect x="40" y="128" width="10" height="10" fill="white"/>
<rect x="30" y="118" width="10" height="10" fill="white"/>
<rect x="10" y="30" width="40" height="10" fill="white"/>
<rect x="10" y="20" width="40" height="10" fill="white"/>
<rect x="10" y="10" width="40" height="10" fill="white"/>
</svg>
