<svg width="1440" height="841" viewBox="0 0 1440 841" fill="none" xmlns="http://www.w3.org/2000/svg">
<path fill-rule="evenodd" clip-rule="evenodd" d="M0 0H1440V841H0V209.49H18.3185C31.8682 209.492 45.0175 214.085 55.621 222.521C66.2246 230.957 73.6565 242.737 76.7045 255.94L166.171 644.544C173.951 677.398 198.015 706 234.244 706C270.473 706 298.732 683.424 305.653 649.635L385.09 280.976L388.179 254.776L391.078 281.052L470.496 649.635C477.417 683.424 505.523 706 541.905 706C578.287 706 602.274 677.398 610.054 644.506L728.961 127.765H642.927L543.545 558.986L539.331 594.7L535.269 557.918L455.432 187.924C448.51 151.562 429.061 125 388.351 125H388.065C347.355 125 327.905 151.466 320.984 187.924L240.937 558.3L236.646 594.7L232.661 558.605L158.296 236.357C143.042 164.166 94.2279 127.841 20.6448 127.841L0 127.612V0ZM847.418 545.359C839.848 540.501 831.002 538.008 822.008 538.198C810.127 538.354 798.791 543.21 790.482 551.705C782.173 560.2 777.568 571.64 777.675 583.522C777.685 592.517 780.373 601.306 785.397 608.768C790.421 616.229 797.554 622.025 805.885 625.417C814.217 628.809 823.369 629.643 832.176 627.813C840.984 625.982 849.046 621.571 855.336 615.14C861.626 608.71 865.858 600.551 867.493 591.706C869.129 582.86 868.092 573.728 864.517 565.474C860.942 557.22 854.989 550.217 847.418 545.359ZM700.374 583.503C700.374 515.831 754.851 460.973 822.008 460.973L821.932 460.992C889.108 460.992 943.566 515.888 943.566 583.522C943.566 651.156 889.223 705.995 822.008 705.995C754.794 705.995 700.374 651.175 700.374 583.503Z" fill="url(#paint0_linear_527_107)"/>
<defs>
<linearGradient id="paint0_linear_527_107" x1="720" y1="0" x2="720" y2="841" gradientUnits="userSpaceOnUse">
<stop stop-color="#4B87FF"/>
<stop offset="1" stop-color="#2257C0"/>
</linearGradient>
</defs>
</svg>
