<svg width="125" height="125" viewBox="0 0 125 125" fill="none" xmlns="http://www.w3.org/2000/svg">
<path d="M125 -2.89401e-05C108.585 -2.91473e-05 92.3303 3.23319 77.1646 9.51502C61.9989 15.7969 48.219 25.0043 36.6117 36.6116C25.0043 48.2189 15.7969 61.9988 9.51506 77.1645C3.23322 92.3302 -5.32558e-07 108.585 0 125L78.75 125C78.75 118.926 79.9463 112.912 82.2706 107.301C84.5948 101.689 88.0016 96.5909 92.2963 92.2962C96.591 88.0015 101.69 84.5948 107.301 82.2705C112.912 79.9462 118.926 78.7499 125 78.7499L125 -2.89401e-05Z" fill="white"/>
</svg>
