<svg width="88" height="73" viewBox="0 0 88 73" fill="none" xmlns="http://www.w3.org/2000/svg">
<path d="M0.000114441 0.902344L6.63761 17.6648C12.0376 15.2648 16.9501 13.5023 21.3751 12.3773C25.8001 11.2523 31.1626 10.4273 37.4626 9.90234L34.2001 4.95234C33.3751 3.67734 32.2876 2.68434 30.9376 1.97334C29.5876 1.25934 28.1626 0.902344 26.6626 0.902344L0.000114441 0.902344ZM9.00011 24.4148V49.3898C14.1001 52.0148 19.4071 53.9648 24.9211 55.2398C30.4321 56.5148 36.1126 57.1523 41.9626 57.1523C51.3376 57.1523 60.1696 55.2953 68.4586 51.5813C76.7446 47.8703 83.0251 42.9773 87.3001 36.9023C83.0251 30.8273 76.7446 25.9343 68.4586 22.2233C60.1696 18.5093 51.3376 16.6523 41.9626 16.6523C36.0376 16.6523 30.3001 17.2898 24.7501 18.5648C19.2001 19.8398 13.9501 21.7898 9.00011 24.4148ZM40.5001 36.9023C40.5001 34.4273 41.3821 32.3093 43.1461 30.5483C44.9071 28.7843 47.0251 27.9023 49.5001 27.9023C51.9751 27.9023 54.0946 28.7843 55.8586 30.5483C57.6196 32.3093 58.5001 34.4273 58.5001 36.9023C58.5001 39.3773 57.6196 41.4968 55.8586 43.2608C54.0946 45.0218 51.9751 45.9023 49.5001 45.9023C47.0251 45.9023 44.9071 45.0218 43.1461 43.2608C41.3821 41.4968 40.5001 39.3773 40.5001 36.9023ZM0.000114441 72.9023H26.6626C28.1626 72.9023 29.5876 72.5468 30.9376 71.8358C32.2876 71.1218 33.3751 70.1273 34.2001 68.8523L37.4626 63.9023C31.1626 63.3773 25.8001 62.5523 21.3751 61.4273C16.9501 60.3023 12.0376 58.5398 6.63761 56.1398L0.000114441 72.9023Z" fill="white"/>
</svg>
