<?xml version="1.0" standalone="no"?>
<!DOCTYPE svg PUBLIC "-//W3C//DTD SVG 20010904//EN"
 "http://www.w3.org/TR/2001/REC-SVG-20010904/DTD/svg10.dtd">
<svg version="1.0" xmlns="http://www.w3.org/2000/svg"
 width="1632.000000pt" height="1632.000000pt" viewBox="0 0 1632.000000 1632.000000"
 preserveAspectRatio="xMidYMid meet">
<metadata>
Created by potrace 1.14, written by Peter Selinger 2001-2017
</metadata>
<g transform="translate(0.000000,1632.000000) scale(0.100000,-0.100000)"
fill="#000000" stroke="none">
<path d="M7245 12950 c-22 -5 -58 -11 -80 -15 -45 -7 -54 -9 -75 -18 -8 -3
-33 -11 -55 -18 -51 -15 -149 -61 -153 -71 -2 -4 -9 -8 -15 -8 -7 0 -38 -19
-69 -43 -102 -77 -163 -141 -226 -237 -23 -36 -47 -71 -52 -77 -6 -7 -8 -13
-4 -13 4 0 0 -8 -8 -17 -29 -35 -120 -269 -133 -344 -3 -17 -11 -41 -16 -52
-8 -15 -8 -18 1 -12 9 6 9 3 2 -12 -6 -10 -13 -34 -15 -53 -3 -19 -6 -35 -7
-35 -1 0 -3 -8 -5 -17 -2 -9 -8 -40 -15 -70 -6 -29 -23 -105 -36 -168 -32
-144 -32 -145 -34 -145 -1 0 -3 -9 -4 -20 -2 -16 -15 -81 -21 -105 0 -3 -4
-21 -8 -40 -4 -19 -10 -46 -13 -60 -3 -14 -7 -36 -10 -50 -2 -14 -7 -31 -10
-39 -2 -8 -7 -30 -10 -50 -3 -20 -10 -41 -15 -47 -5 -6 -7 -13 -4 -16 3 -3 -1
-34 -9 -69 -8 -35 -18 -79 -21 -98 -3 -19 -8 -38 -11 -42 -3 -5 -7 -21 -9 -36
-2 -16 -7 -39 -10 -53 -3 -14 -8 -38 -11 -55 -8 -43 -12 -60 -14 -62 -2 -2 -3
-11 -4 -20 -1 -10 -6 -34 -11 -53 -5 -19 -9 -42 -11 -50 -1 -8 -4 -24 -7 -35
-3 -11 -13 -56 -22 -100 -28 -129 -31 -145 -54 -250 -12 -55 -24 -109 -27
-120 -2 -11 -6 -30 -9 -42 -8 -35 -14 -63 -25 -118 -10 -50 -17 -82 -25 -120
-9 -41 -30 -134 -49 -225 -3 -14 -10 -43 -15 -65 -5 -22 -12 -51 -15 -65 -2
-14 -9 -45 -15 -70 -11 -51 -22 -105 -26 -135 -2 -11 -4 -21 -5 -22 -4 -5 -6
-15 -15 -68 -4 -27 -10 -54 -13 -60 -4 -5 -8 -19 -9 -30 -2 -11 -13 -63 -24
-115 -23 -104 -24 -110 -39 -190 -6 -30 -14 -62 -17 -70 -4 -8 -7 -23 -8 -32
-2 -10 -4 -19 -5 -20 -1 -2 -3 -14 -5 -28 -1 -14 -12 -65 -23 -115 -12 -49
-23 -101 -26 -115 -2 -14 -16 -79 -31 -145 -15 -66 -28 -129 -31 -140 -2 -11
-7 -33 -11 -50 -4 -16 -7 -39 -8 -50 0 -11 -4 -25 -8 -32 -4 -6 -9 -24 -11
-40 -3 -15 -7 -39 -10 -53 -14 -62 -17 -76 -22 -97 -2 -13 -6 -33 -8 -45 -2
-13 -10 -45 -16 -73 -6 -27 -14 -59 -16 -70 -7 -35 -12 -59 -23 -108 -6 -26
-14 -64 -17 -85 -3 -20 -8 -40 -10 -43 -2 -3 -6 -21 -9 -40 -9 -45 -13 -64
-15 -64 -1 0 -3 -11 -6 -25 -2 -14 -18 -88 -35 -165 -17 -77 -33 -151 -35
-165 -4 -20 -12 -61 -19 -90 -3 -11 -26 -116 -30 -140 -3 -14 -8 -36 -10 -50
-2 -14 -9 -41 -15 -60 -6 -19 -13 -55 -16 -80 -3 -24 -8 -48 -10 -52 -3 -4 -7
-18 -9 -30 -3 -13 -12 -59 -21 -103 -9 -44 -17 -84 -18 -90 -1 -5 -5 -19 -9
-30 -3 -11 -8 -31 -11 -45 -3 -14 -7 -34 -9 -45 -5 -21 -16 -112 -23 -180 -2
-22 -6 -60 -9 -85 -4 -25 -8 -63 -10 -85 -2 -22 -4 -40 -5 -40 -2 0 -9 -55
-14 -115 -7 -74 -7 -76 -16 -47 -5 15 -12 67 -15 115 -4 48 -9 94 -10 102 -4
24 -15 110 -20 165 -10 101 -31 231 -40 245 -2 4 -7 22 -10 41 -4 19 -8 39 -9
44 -1 6 -4 15 -7 20 -4 6 -5 18 -4 28 2 9 -1 17 -6 17 -6 0 -8 4 -5 9 3 5 -1
29 -8 55 -8 25 -12 46 -10 46 2 0 -1 11 -6 26 -6 14 -12 39 -15 57 -3 18 -17
77 -30 132 -13 55 -26 111 -28 125 -3 14 -8 32 -11 40 -3 8 -7 29 -10 45 -3
17 -9 47 -15 68 -5 20 -7 37 -4 37 3 0 1 6 -4 13 -6 6 -11 19 -11 27 -1 19 -9
58 -15 68 -3 4 -8 23 -11 42 -6 36 -12 64 -22 103 -3 12 -9 38 -14 57 -4 19
-24 109 -45 200 -21 91 -39 172 -40 180 -2 8 -4 15 -5 15 -2 0 -10 36 -16 74
-2 19 -8 39 -11 44 -4 6 -8 20 -9 32 -2 11 -10 52 -19 90 -9 39 -19 81 -21 94
-3 14 -7 28 -9 31 -2 4 -7 22 -10 41 -3 19 -10 52 -16 74 -5 22 -12 51 -15 63
-2 13 -32 139 -64 280 -33 142 -61 266 -63 277 -2 11 -7 27 -10 35 -3 8 -8 29
-11 45 -6 30 -19 88 -31 135 -6 24 -9 38 -19 93 -3 12 -21 90 -41 172 -35 149
-69 297 -79 345 -3 14 -10 40 -15 59 -6 19 -9 37 -6 39 2 3 0 12 -5 21 -4 9
-11 37 -15 61 -4 25 -11 47 -16 48 -5 2 -7 7 -4 11 2 4 -4 44 -15 89 -11 44
-21 91 -24 104 -3 13 -8 34 -11 48 -3 14 -8 36 -11 50 -3 14 -8 34 -11 45 -4
11 -8 29 -10 40 -1 11 -9 49 -18 85 -9 36 -18 74 -20 84 -3 11 -25 108 -51
215 -25 108 -48 205 -50 216 -3 11 -7 31 -9 45 -7 36 -13 65 -15 65 -1 0 -3 9
-5 20 -2 11 -8 38 -14 60 -5 22 -26 112 -46 200 -42 181 -84 335 -95 350 -5 6
-8 12 -8 15 3 19 -73 213 -84 218 -5 2 -8 9 -8 15 0 19 -63 147 -72 147 -4 0
-8 9 -8 19 0 11 -3 21 -7 23 -10 4 -73 107 -73 118 0 5 -3 10 -7 12 -9 3 -73
84 -73 91 0 16 -262 287 -278 287 -6 0 -12 3 -14 8 -10 22 -165 130 -258 178
-30 16 -56 32 -58 37 -2 4 -7 7 -12 7 -4 0 -41 15 -82 34 -74 34 -105 47 -123
52 -5 1 -41 14 -80 28 -38 14 -81 28 -95 30 -14 2 -25 5 -25 6 0 1 -7 3 -15 5
-8 2 -25 6 -38 9 -39 10 -143 32 -192 40 -14 3 -25 5 -25 6 0 1 -20 3 -45 6
-25 2 -63 6 -85 9 -98 13 -227 17 -615 19 -228 1 -421 5 -427 9 -7 5 -13 4
-13 0 0 -12 -283 -10 -292 2 -5 6 -8 6 -8 -1 0 -6 -21 -10 -50 -10 -27 1 -50
5 -50 10 0 5 -6 4 -13 -1 -13 -10 -133 -11 -143 0 -3 3 -16 2 -28 -2 -22 -8
-118 -6 -141 3 -8 3 -17 1 -19 -3 -3 -4 -24 -6 -46 -4 l-40 4 0 -656 c0 -360
3 -655 8 -656 4 0 363 -2 797 -3 435 -2 810 -6 835 -10 45 -8 142 -32 170 -43
8 -4 18 -7 23 -8 4 -2 10 -4 15 -5 4 -1 10 -2 15 -1 4 0 7 -4 7 -11 0 -6 2 -9
6 -6 10 11 137 -63 219 -126 80 -62 198 -200 226 -263 7 -18 17 -33 20 -33 3
0 12 -18 19 -40 7 -22 16 -40 20 -40 5 0 27 -70 31 -98 1 -4 5 -15 10 -24 5
-10 11 -30 13 -45 3 -15 7 -39 11 -53 4 -14 8 -35 10 -47 2 -11 6 -30 9 -41 7
-20 12 -42 22 -92 3 -14 16 -72 30 -130 13 -58 27 -116 30 -130 10 -41 14 -59
18 -77 13 -51 64 -277 69 -303 2 -8 6 -26 10 -40 4 -14 9 -36 12 -50 3 -14 9
-43 14 -65 5 -22 17 -71 26 -110 9 -38 18 -79 21 -90 3 -11 7 -31 10 -45 3
-13 14 -60 24 -105 10 -45 21 -92 24 -105 3 -14 10 -45 16 -70 6 -25 13 -56
16 -70 3 -13 15 -63 26 -110 11 -47 22 -94 23 -106 1 -11 4 -24 7 -30 3 -5 9
-25 12 -44 3 -19 10 -50 15 -68 5 -18 10 -36 11 -40 0 -4 3 -16 5 -27 3 -11 7
-31 9 -45 3 -14 5 -25 6 -25 1 0 3 -7 5 -16 1 -10 11 -50 20 -90 10 -41 19
-83 20 -94 2 -11 4 -20 5 -20 1 0 3 -8 5 -17 2 -9 10 -45 18 -80 29 -123 58
-246 62 -268 2 -12 7 -31 11 -42 3 -11 7 -30 9 -41 6 -37 15 -80 27 -122 6
-22 12 -44 13 -50 1 -8 15 -75 20 -95 10 -37 54 -227 61 -260 3 -14 7 -35 10
-47 2 -12 8 -33 14 -47 5 -13 7 -26 5 -28 -2 -2 2 -25 10 -52 8 -26 14 -51 14
-54 -1 -4 0 -10 1 -14 1 -5 3 -11 4 -15 13 -59 42 -184 57 -241 11 -40 17 -77
14 -82 -3 -5 -1 -11 4 -15 6 -3 13 -27 17 -53 9 -52 11 -61 14 -64 3 -4 10
-40 16 -77 2 -18 9 -42 15 -52 5 -10 8 -19 5 -19 -3 0 0 -15 5 -32 5 -18 12
-46 15 -63 2 -16 21 -95 40 -175 20 -80 37 -154 39 -165 7 -37 16 -80 27 -120
12 -48 18 -73 22 -100 2 -11 16 -72 31 -135 32 -132 44 -187 50 -215 2 -11 11
-51 20 -90 9 -38 19 -79 21 -90 2 -11 6 -31 10 -45 3 -14 6 -31 6 -37 1 -7 4
-13 7 -13 3 0 7 -10 7 -22 3 -42 8 -68 14 -68 3 0 6 -10 6 -22 2 -21 23 -118
53 -236 6 -24 9 -47 6 -53 -4 -5 -2 -9 3 -9 5 0 9 -6 9 -12 1 -21 11 -67 17
-77 3 -5 8 -26 11 -47 4 -22 8 -47 11 -56 5 -18 12 -49 20 -88 3 -14 7 -33 10
-42 3 -10 7 -29 10 -43 10 -57 83 -257 115 -318 63 -118 83 -152 121 -202 41
-55 125 -149 167 -188 59 -53 177 -135 234 -160 100 -45 138 -59 207 -76 83
-20 104 -23 220 -26 115 -4 202 4 321 29 51 11 164 48 174 57 5 5 17 9 27 9
10 0 18 5 18 12 0 6 3 8 7 5 17 -18 221 121 319 218 110 110 224 290 254 400
1 6 8 26 16 45 7 19 25 89 39 155 14 66 30 140 36 165 6 25 13 54 15 65 2 11
11 54 21 95 9 41 17 85 17 98 0 12 3 22 6 22 4 0 7 6 7 13 1 15 11 68 24 127
6 25 13 56 15 70 2 14 7 36 10 50 3 14 6 26 6 27 0 2 9 40 20 85 10 46 21 94
23 108 2 14 8 43 14 65 14 54 30 133 36 174 3 19 7 37 10 41 2 4 7 22 10 41 3
19 11 54 16 79 6 25 13 56 15 70 2 14 14 66 25 115 21 92 26 111 34 155 7 36
12 58 25 115 6 28 14 61 16 75 2 14 7 39 11 55 4 17 8 35 9 40 1 6 12 55 24
110 22 103 25 115 37 175 4 19 8 37 8 40 1 3 4 19 8 35 9 39 17 74 23 105 2
14 7 36 11 50 3 14 7 27 8 30 2 10 17 86 21 110 3 14 7 33 10 42 6 20 12 51
20 98 3 19 9 37 13 40 3 3 6 16 5 30 0 14 3 34 7 46 4 11 10 34 12 50 3 16 10
52 17 79 6 28 14 61 16 75 3 14 10 43 15 65 5 22 12 54 14 70 6 35 13 70 15
70 1 0 3 9 5 19 2 11 11 51 19 90 9 39 18 82 20 96 3 14 7 34 10 45 5 22 35
157 42 190 2 11 6 30 9 43 3 12 7 32 10 45 2 12 9 42 15 67 5 25 12 56 14 70
2 14 9 45 15 70 5 25 13 59 16 75 3 17 7 35 9 40 1 6 6 28 11 50 11 57 17 86
30 143 10 44 14 61 34 153 11 52 22 105 25 119 2 14 9 45 15 70 7 25 14 61 17
80 2 19 7 43 10 52 3 10 7 30 10 44 3 14 12 56 20 93 9 36 18 77 21 91 2 14 9
45 14 70 6 25 13 56 15 70 3 14 10 45 15 70 6 25 13 56 15 69 3 13 10 33 15
44 8 15 8 18 -1 12 -9 -5 -9 -3 -2 11 5 11 13 39 17 64 9 58 16 89 33 155 6
22 13 57 16 79 4 21 8 42 11 46 4 7 14 55 20 102 2 15 6 32 10 38 4 6 8 28 10
48 2 20 7 64 11 97 4 33 8 79 8 102 1 24 4 43 7 43 4 0 5 14 4 30 -1 17 1 33
6 35 4 3 6 12 3 20 -3 7 0 22 6 32 10 16 11 16 7 -4 -3 -13 -2 -25 2 -27 3 -2
6 -25 6 -50 -1 -25 2 -46 5 -46 3 0 5 -15 6 -33 1 -29 10 -128 19 -200 4 -28
39 -196 52 -247 4 -14 8 -29 8 -35 2 -8 16 -78 20 -95 1 -3 5 -23 10 -45 11
-57 14 -72 21 -97 3 -13 7 -34 10 -48 2 -14 7 -36 10 -50 3 -14 7 -32 9 -40 8
-33 56 -258 65 -300 5 -25 14 -61 18 -80 5 -19 9 -38 10 -43 1 -4 4 -17 7 -30
5 -25 14 -68 21 -112 3 -16 10 -48 16 -70 5 -22 12 -49 14 -60 2 -11 6 -31 9
-45 3 -14 7 -34 9 -45 7 -30 37 -167 42 -190 5 -21 11 -51 18 -87 2 -13 9 -43
15 -68 5 -25 12 -56 15 -70 20 -102 48 -237 51 -245 1 -5 3 -13 5 -17 6 -23
30 -132 35 -160 3 -18 8 -40 10 -48 2 -8 6 -26 9 -40 3 -14 14 -64 24 -112 11
-49 17 -88 14 -88 -2 0 1 -7 8 -15 7 -8 10 -15 7 -15 -3 0 0 -19 5 -42 5 -24
12 -54 14 -68 3 -14 9 -41 14 -60 5 -19 11 -46 14 -60 2 -14 14 -68 25 -120
11 -52 22 -107 25 -122 3 -15 7 -32 10 -36 3 -5 8 -27 11 -48 6 -51 13 -82 18
-92 3 -4 8 -25 11 -47 4 -22 9 -48 12 -58 3 -11 8 -31 10 -45 6 -37 32 -155
39 -182 2 -6 15 -68 19 -90 2 -8 6 -26 9 -40 4 -14 9 -37 12 -52 8 -45 15 -77
30 -141 8 -33 12 -64 9 -69 -3 -4 -1 -8 3 -8 5 0 9 -8 10 -18 1 -16 60 -292
82 -384 5 -21 7 -38 5 -38 -3 0 0 -8 5 -19 6 -10 12 -33 15 -52 6 -42 14 -86
23 -119 3 -14 5 -31 4 -37 -1 -7 2 -13 6 -13 4 0 8 -12 9 -27 0 -16 9 -62 18
-103 10 -41 20 -86 22 -100 3 -14 11 -52 19 -85 8 -33 17 -72 20 -87 11 -59
22 -110 41 -193 3 -11 7 -31 10 -45 2 -14 7 -36 10 -50 3 -14 8 -38 11 -55 2
-16 6 -37 9 -45 3 -8 8 -26 10 -39 3 -13 11 -54 19 -90 8 -36 24 -109 36 -161
11 -52 23 -106 26 -120 3 -14 6 -35 6 -47 1 -13 4 -23 7 -23 4 0 7 -6 7 -12 2
-47 45 -173 90 -267 20 -42 39 -78 42 -81 4 -3 24 -32 45 -65 34 -53 167 -193
222 -235 61 -47 224 -140 254 -146 7 -1 41 -14 65 -25 23 -10 122 -35 197 -50
85 -17 294 -19 383 -5 76 13 150 32 205 54 14 5 27 9 30 9 3 0 16 6 30 13 14
8 28 13 33 12 4 -1 7 2 7 8 0 5 5 10 10 10 10 0 98 55 145 90 59 44 207 205
253 275 29 44 56 85 60 90 32 43 128 286 152 385 6 25 12 52 15 60 2 8 15 67
29 130 14 63 38 165 52 225 14 61 28 124 31 140 3 17 9 37 14 46 4 9 6 19 2
22 -3 4 0 13 7 22 7 8 10 15 7 15 -3 0 4 37 14 83 22 97 79 345 84 367 2 8 15
65 30 125 15 61 28 121 30 135 2 14 11 54 20 90 9 35 18 74 20 85 2 11 4 21 6
23 2 3 3 6 13 57 4 22 10 44 14 49 3 5 6 21 8 35 1 14 14 76 29 136 14 61 28
121 31 135 3 14 7 33 10 42 5 17 12 49 19 83 2 11 8 38 14 60 5 22 12 51 14
65 3 14 10 43 15 65 6 22 13 51 16 65 2 14 10 48 16 75 7 28 14 59 15 70 2 11
4 20 5 20 2 0 6 18 30 120 6 28 13 61 15 75 2 14 10 46 18 72 8 26 13 49 10
52 -3 2 0 13 5 23 6 10 13 36 16 58 4 22 9 48 12 57 3 9 7 25 9 35 2 10 9 41
15 68 6 28 13 57 15 65 2 8 8 35 14 60 17 66 30 130 33 157 0 5 5 19 10 33 5
14 11 38 14 54 2 15 6 36 9 46 3 10 8 27 10 37 7 33 35 158 39 173 5 17 54
233 62 270 2 14 8 34 11 45 4 11 8 27 9 35 6 40 40 187 69 300 3 13 18 87 21
105 2 11 10 45 18 75 20 72 28 110 29 138 1 12 4 22 8 22 5 0 12 33 20 105 1
6 6 21 11 35 5 14 13 43 18 65 5 22 11 49 13 60 3 11 17 72 31 135 14 63 35
153 47 200 11 47 23 96 24 110 5 28 13 65 15 65 2 0 4 9 13 55 7 31 87 378 94
405 3 11 5 30 6 43 1 12 4 22 7 22 4 0 7 6 7 13 0 6 3 23 6 37 3 14 9 36 12
50 3 14 8 41 11 60 3 19 8 38 11 43 2 4 6 17 9 30 7 39 12 61 29 132 9 39 18
79 21 90 2 11 7 34 11 50 4 17 8 35 8 40 1 6 4 19 8 30 6 19 9 32 22 103 3 15
8 34 12 42 3 8 7 24 9 35 1 11 12 61 24 110 12 50 23 99 25 110 2 11 8 40 15
65 7 25 14 52 15 60 2 8 13 58 25 110 12 52 23 104 25 115 2 11 18 79 35 150
17 72 33 141 36 155 3 14 14 63 25 110 27 112 29 120 36 155 8 45 11 60 13 60
1 0 3 8 5 19 2 10 9 39 15 65 6 25 12 55 15 66 2 11 8 36 13 55 5 19 9 38 10
43 1 4 2 8 3 10 2 6 10 54 12 72 2 19 -6 20 -676 20 -373 0 -683 -3 -689 -6
-6 -4 -14 -26 -19 -50 -5 -24 -11 -53 -14 -64 -3 -11 -7 -30 -9 -43 -3 -13 -7
-31 -10 -40 -3 -9 -7 -28 -10 -42 -3 -14 -8 -36 -11 -50 -3 -14 -8 -35 -11
-48 -3 -13 -18 -80 -34 -149 -17 -68 -28 -129 -24 -134 3 -5 0 -9 -5 -9 -6 0
-10 -3 -10 -7 1 -5 0 -10 -1 -13 -1 -3 -3 -14 -5 -25 -2 -11 -5 -29 -8 -40
-16 -63 -24 -105 -21 -105 3 0 0 -8 -5 -18 -5 -10 -12 -38 -16 -62 -4 -25 -9
-48 -12 -52 -2 -5 -6 -18 -9 -31 -2 -12 -6 -33 -9 -47 -4 -14 -8 -36 -11 -50
-2 -14 -7 -32 -10 -40 -3 -8 -8 -26 -10 -40 -3 -14 -9 -41 -14 -60 -5 -19 -12
-50 -15 -69 -3 -19 -8 -37 -10 -41 -2 -3 -6 -20 -9 -36 -9 -49 -38 -178 -44
-194 -3 -8 -5 -18 -4 -22 1 -4 -3 -20 -9 -35 -6 -15 -12 -41 -14 -58 -2 -16
-16 -77 -30 -135 -23 -93 -38 -158 -65 -280 -4 -19 -26 -116 -49 -215 -23 -99
-43 -187 -45 -195 -1 -8 -8 -33 -14 -55 -13 -46 -24 -101 -27 -131 -1 -11 -4
-25 -8 -30 -3 -6 -9 -26 -12 -45 -3 -19 -9 -43 -12 -54 -4 -11 -8 -27 -9 -35
-5 -29 -15 -76 -26 -115 -6 -22 -12 -47 -13 -56 -1 -8 -7 -35 -13 -60 -27
-108 -61 -255 -66 -294 -2 -11 -6 -27 -9 -35 -8 -23 -38 -151 -44 -185 -2 -16
-10 -52 -18 -80 -8 -27 -16 -63 -19 -80 -2 -16 -5 -30 -6 -30 -1 0 -4 -11 -7
-25 -7 -39 -11 -55 -13 -55 -1 0 -3 -9 -4 -20 -2 -11 -13 -60 -25 -110 -12
-49 -24 -101 -26 -115 -2 -14 -9 -40 -14 -58 -5 -18 -10 -35 -10 -37 -1 -3 -1
-6 -2 -7 0 -2 -2 -12 -4 -24 -3 -11 -14 -60 -25 -110 -12 -49 -24 -99 -26
-112 -3 -13 -16 -69 -29 -124 -13 -56 -22 -104 -20 -109 3 -4 1 -10 -4 -13 -4
-3 -12 -25 -16 -48 -4 -24 -9 -48 -10 -54 -25 -110 -40 -177 -61 -263 -35
-143 -35 -144 -39 -166 -2 -11 -4 -20 -5 -20 -1 0 -3 -7 -13 -60 -2 -11 -7
-31 -10 -45 -12 -47 -49 -205 -53 -225 -2 -11 -8 -38 -13 -60 -9 -34 -33 -140
-36 -155 -1 -3 -4 -18 -8 -35 -11 -46 -14 -59 -52 -225 -51 -223 -57 -247 -56
-255 0 -2 -5 -19 -10 -37 -6 -18 -12 -44 -15 -58 -6 -28 -36 -161 -60 -258 -8
-35 -16 -72 -17 -83 -1 -10 -4 -19 -8 -19 -4 0 -6 -8 -5 -17 2 -10 -1 -31 -6
-48 -14 -45 -17 -63 -23 -124 -3 -31 -8 -69 -10 -86 -2 -16 -7 -54 -10 -83 -4
-29 -8 -61 -10 -70 -1 -9 -6 -50 -10 -89 -4 -40 -8 -81 -10 -90 -2 -10 -4 -26
-4 -35 -2 -39 -18 -15 -20 30 -1 26 -4 61 -7 77 -2 17 -6 55 -9 85 -8 85 -13
132 -19 175 -3 22 -8 60 -11 85 -7 77 -14 113 -45 251 -17 74 -33 150 -36 169
-3 19 -8 38 -10 41 -2 3 -5 19 -8 35 -4 23 -29 137 -50 234 -9 39 -20 96 -21
105 -1 12 -39 181 -60 272 -8 34 -18 79 -21 100 -3 21 -7 43 -8 48 -1 6 -5 16
-9 23 -5 6 -5 17 -2 22 3 6 2 10 -3 10 -5 0 -8 11 -7 25 2 14 0 25 -4 25 -4 0
-7 8 -7 18 -1 19 -8 55 -23 117 -5 22 -12 54 -15 70 -2 17 -7 39 -10 50 -10
43 -25 111 -30 135 -3 14 -14 68 -26 120 -12 52 -23 104 -25 115 -2 11 -6 29
-8 40 -4 18 -44 206 -52 245 -2 8 -10 45 -19 83 -9 37 -18 82 -21 100 -3 17
-8 40 -11 50 -3 11 -7 29 -9 40 -2 12 -11 54 -19 92 -9 39 -18 81 -20 95 -3
14 -5 25 -7 25 -1 0 -3 9 -4 20 -2 11 -11 54 -20 95 -9 41 -19 86 -21 99 -3
12 -12 53 -20 90 -9 36 -18 77 -20 91 -2 14 -7 36 -11 50 -9 37 -12 52 -17 80
-2 14 -7 33 -11 42 -4 9 -4 22 0 28 3 5 1 10 -5 10 -6 0 -10 6 -8 13 2 11 -3
40 -17 105 -3 12 -7 31 -10 43 -2 11 -7 29 -10 40 -4 11 -8 32 -10 47 -3 15
-6 36 -9 47 -3 11 -14 64 -25 118 -12 54 -23 102 -25 106 -3 4 -7 25 -10 46
-3 22 -9 55 -15 73 -5 18 -10 35 -10 37 0 7 -13 77 -18 100 -3 11 -9 38 -14
60 -5 22 -12 54 -15 70 -3 17 -14 67 -25 112 -10 44 -21 96 -24 115 -3 18 -8
41 -11 50 -7 23 -14 57 -20 93 -3 17 -9 41 -13 55 -4 14 -7 33 -5 43 1 9 -1
17 -5 17 -4 0 -7 8 -8 18 -2 30 -14 86 -24 116 -5 16 -7 31 -5 34 3 2 1 15 -5
29 -5 13 -11 36 -14 51 -3 15 -7 38 -10 52 -4 14 -8 39 -11 55 -3 17 -9 44
-14 60 -5 17 -12 44 -15 60 -13 78 -16 92 -25 120 -5 17 -12 46 -15 65 -2 19
-10 55 -15 80 -6 25 -13 56 -15 70 -8 42 -13 65 -15 65 -1 0 -3 9 -5 20 -2 11
-6 31 -8 45 -3 14 -14 66 -25 115 -12 50 -23 101 -26 115 -2 14 -10 48 -16 75
-7 28 -13 57 -14 65 -5 33 -35 147 -46 175 -5 11 -14 38 -21 60 -6 22 -26 69
-42 105 -17 36 -30 68 -29 73 1 4 -3 7 -8 7 -6 0 -10 4 -10 10 0 11 -77 132
-111 174 -133 163 -335 282 -544 322 -22 4 -47 9 -55 11 -29 8 -335 10 -375 3z"/>
<path d="M14258 7575 c-2 -1 -34 -5 -73 -9 -38 -3 -79 -7 -90 -10 -34 -6 -120
-18 -120 -16 0 1 -12 -3 -28 -9 -15 -6 -38 -13 -50 -15 -12 -2 -49 -12 -82
-22 -33 -10 -62 -19 -65 -19 -3 -1 -13 -5 -22 -8 -29 -11 -53 -18 -53 -16 0 1
-18 -7 -40 -18 -22 -12 -43 -21 -48 -22 -38 -5 -271 -143 -382 -227 -99 -75
-265 -226 -265 -241 0 -3 -8 -13 -18 -22 -35 -31 -118 -138 -172 -221 -30 -47
-58 -86 -62 -88 -5 -2 -8 -10 -8 -19 0 -8 -9 -28 -21 -44 -11 -16 -17 -29 -12
-29 4 0 3 -4 -2 -8 -12 -8 -74 -143 -100 -217 -9 -27 -21 -59 -26 -70 -5 -11
-11 -31 -13 -45 -2 -14 -9 -38 -15 -54 -7 -16 -9 -31 -6 -34 2 -3 0 -11 -7
-19 -6 -7 -8 -16 -5 -20 4 -3 2 -13 -3 -22 -9 -18 -20 -81 -37 -221 -8 -74 -9
-309 0 -390 13 -116 31 -218 53 -295 8 -27 15 -52 15 -55 10 -46 53 -171 60
-176 5 -3 9 -11 9 -19 0 -13 84 -192 118 -250 121 -207 291 -404 475 -550 21
-16 44 -36 52 -42 7 -7 16 -13 20 -13 3 0 15 -9 27 -20 12 -11 28 -20 35 -20
7 0 13 -4 13 -9 0 -5 15 -16 33 -25 34 -18 56 -30 99 -58 14 -10 33 -18 41
-18 9 0 17 -3 19 -7 4 -9 125 -67 130 -63 2 2 23 -7 48 -20 25 -13 45 -22 45
-21 0 2 22 -4 53 -16 9 -3 26 -8 37 -10 11 -2 31 -8 45 -13 14 -5 37 -12 53
-14 15 -3 35 -7 45 -10 21 -7 46 -11 182 -29 102 -14 383 -16 460 -3 19 3 53
8 75 11 46 6 79 12 103 19 9 3 35 8 57 12 22 3 45 10 52 16 7 5 17 7 23 3 5
-3 10 -1 10 6 0 7 3 10 6 6 7 -7 162 48 240 84 27 13 52 22 57 21 4 -1 7 2 7
7 0 8 37 24 53 22 4 -1 7 4 7 9 0 6 7 10 15 10 8 0 15 5 15 11 0 5 5 7 10 4 6
-3 10 -3 10 2 0 4 18 17 40 27 22 11 40 23 40 28 0 4 5 8 10 8 21 0 199 141
292 232 87 84 179 189 218 249 8 12 23 31 33 41 9 10 14 18 10 18 -5 0 -3 4 2
8 23 16 145 235 145 258 0 7 3 14 8 16 6 3 71 154 76 181 2 7 6 19 9 27 6 13
29 98 43 155 9 39 32 161 39 210 11 74 14 381 5 450 -5 33 -11 85 -15 115 -9
63 -10 70 -18 90 -8 21 -30 122 -30 138 0 6 -5 12 -10 12 -6 0 -8 3 -4 6 3 3
1 18 -5 33 -5 14 -11 33 -13 41 -6 27 -72 184 -110 259 -62 124 -183 303 -275
405 -79 89 -239 238 -278 260 -9 6 -28 20 -42 33 -14 13 -28 23 -33 23 -4 0
-17 9 -29 20 -12 11 -28 20 -35 20 -7 0 -13 4 -13 8 0 13 -263 145 -340 171
-35 12 -69 25 -75 29 -5 4 -14 7 -20 8 -5 1 -37 10 -70 19 -33 9 -69 18 -80
20 -50 11 -124 25 -160 30 -22 3 -53 8 -70 11 -28 5 -322 13 -327 9z m330
-1265 c45 -12 82 -27 82 -33 0 -6 3 -8 6 -4 15 15 161 -81 222 -145 66 -70 92
-102 92 -115 0 -7 5 -13 10 -13 6 0 10 -7 10 -15 0 -8 5 -15 10 -15 6 0 9 -3
8 -7 -1 -5 5 -21 14 -38 16 -31 53 -147 63 -200 9 -47 6 -188 -5 -241 -18 -88
-21 -96 -36 -125 -8 -16 -12 -29 -9 -29 6 0 -42 -86 -76 -135 -39 -55 -95
-113 -154 -157 -28 -21 -56 -42 -62 -48 -7 -6 -16 -11 -20 -11 -5 -1 -24 -9
-43 -19 -34 -17 -111 -44 -161 -57 -38 -9 -262 -12 -279 -3 -9 5 -29 10 -45
13 -17 2 -39 7 -50 11 -11 5 -37 14 -58 22 -20 8 -55 25 -77 39 -22 14 -42 25
-45 25 -16 0 -175 153 -175 169 0 6 -4 11 -10 11 -5 0 -10 6 -10 14 0 8 -4 16
-9 18 -7 2 -63 103 -66 118 -1 7 -25 81 -32 100 -16 43 -23 234 -10 300 20
109 67 222 125 300 34 46 122 135 164 165 27 20 151 86 168 90 3 1 23 7 45 14
22 7 58 15 80 18 22 3 42 7 44 8 13 13 217 -5 289 -25z"/>
</g>
</svg>
